/* XPM */
static char *_929a8fd48c54103fae18c970d3f4318XnHPy4PViIjjk0Ox[] = {
/* columns rows colors chars-per-pixel */
"100 100 75 1 ",
"  c #88A545",
". c #8AA550",
"X c #8BA753",
"o c #95AA6E",
"O c #9CAD7F",
"+ c #A2AE88",
"@ c #A9B094",
"# c #AEB4A4",
"$ c #B5B5AA",
"% c #B9B5AC",
"& c #B6B7B2",
"* c #BBBDB7",
"= c #B9BCB8",
"- c #BABCB8",
"; c #BBBDBA",
": c #BABCBB",
"> c #BCBCBB",
", c #BDBCBB",
"< c #BEBEBB",
"1 c #BCBCBC",
"2 c #BDBEBD",
"3 c #BDBCBE",
"4 c #C1B7B7",
"5 c #C0BABA",
"6 c #C5B9BC",
"7 c #BEBDC0",
"8 c #BEBEC0",
"9 c #BFBEC0",
"0 c #C6BBC1",
"q c #C0BDC1",
"w c #C1BEC2",
"e c #C1BEC5",
"r c #C2BCC6",
"t c #C3BDC6",
"y c #C4BEC5",
"u c #C3BEC8",
"i c #C4BEC8",
"p c #C6BDCC",
"a c #C7BDCD",
"s c #CBBCC8",
"d c #CEBDCA",
"f c #C9BDCF",
"g c #D0BECE",
"h c #C7BED0",
"j c #CABDD3",
"k c #C9BED3",
"l c #CBBFD3",
"z c #CABDD6",
"x c #CBBDD7",
"c c #CCBED5",
"v c #CEBFD6",
"b c #CDBFD9",
"n c #D0BFD9",
"m c #CCC0D4",
"M c #CEC0D7",
"N c #CEC0D9",
"B c #D0C0D7",
"V c #D1C0D7",
"C c #D3C1D9",
"Z c #D4C0DA",
"A c #D4C1DC",
"S c #D7C2DC",
"D c #D9C1D9",
"F c #DAC3DD",
"G c #DAC2DF",
"H c #DCC3DF",
"J c #DEC3DF",
"K c #DFC3DF",
"L c #DBC2E0",
"P c #DFC3E1",
"I c #DFC3E2",
"U c #DFC4E0",
"Y c #E0C3E2",
"T c #E1C4E3",
"R c #E1C4E5",
/* pixels */
"PPPPPPPPPPPPPPPPPPPPPPPPPPPPPPPPPPPJDds064$+X .o&aNbzlvzlzlzllzlkzlvzzzkzkvzzlvzlBGPPPPPPPPPPPPPPPPP",
"PPPPPPPPPPPPPPPPPPPPPPPPPPPPPPPPPPPPPPPYJJv6%@O#axzzkzzlvlzzvzlzzvvklzvllvzzkzzkzmNZGYPPPPPPPPPPPPPP",
"PPPPPPPPPPPPPPPPPPPPPPPPPPPPPPPPPPPPPPPRTTPPJg5fNzzzzvmzzkzzlzvzzlzvzzvzzvlzzvlzzzzmZZGJPPUUPPPPPPPP",
"PPPPPPPPPPPPPPPPPPPPPPPPPPPPPPPPPPPPPPPPJPPPRTJGBzvmlmzzvzlvvkzvkzvllvzkkzvlvlzzmvzmvNZDLLUUPPPPPPJJ",
"PPPPPPPPPPPPPPPPPPPPPPPPPPPPPPPPPPPPPPPPPPPPPPRPGZmxvzvzlzzzzlzlvzzzzlzkzlzlvzvzvzzmzzmmvZZHGGGGGZZZ",
"PPPPPPPPPPPPPPPPPPPPPPPPPPPPPPPPPPPPPPPPPPPPPPPPJJZbzzkzvlzvzzzvkvzllzvvzvlzzvkvzlkzmzzzkzNmmCCvNmmk",
"PPPPPPPPPPPPPPPPPPPPPPPPPPPPPPPPPPPPPPPPPPPPPPPPUPPAmkzmzlzlzvlzzllzvzlzkvkzkvzllzzvmmmzvkzkkkkzzzzz",
"PPPPPPPPPPPPPPPPPPPPPPPPPPPPPPPPPPPPPPPPPPPPPPPPPPPPZNvzlzkzvlzlkzvmzzzzzlvzzlkzvlzmzzzzzvvlzvvlvkzm",
"PPPPPPPPPPPPPPPPPPPPPPPPPPPPPPPPPPPPPPPPPPPPPPPPPPPPUZzzzlzzmlvzkzvzzkvzvlzmlzlzzmzlkvzlzzvzvzzzzvmz",
"PPPPPPPPPPPPPPPPPPPPPPPPPPPPPPPPPPPPPPPPPPPPPPPPPPPPUJNzzvvkkzzvvzbbvvzzzvkzvlzvzzzlvlzzlvzkkvzlzlzk",
"PPPPPPPPPPPPPPPPPPPPPPPPPPPPPPPPPPPPPPPPPPPPPPPPPPPPPPAxvzvzzzvZGGPGPPLAnZNzzvzkzvvzkzzkvllvzllzzmvz",
"PPPPPPPPPPPPPPPPPPPPPPPPPPPPPPPPPPPPPPPPPPPPPPPPPPPPPPUZkzkvZJJKPPPPPPPPKKGnvzzkzlzlzvlzkzkzkzvklzzv",
"PPPPPPPPPPPPPPPPPPPPPPPPPPPPPPPPPPPPPPPPPPPPPPPPPPPPPPPDZmZLJTJTPPPPPPPPTPPPGvvzzllvzkzvvzvzkzvzlzlz",
"PPPPPPPPPPPPPPPPPPPPPPPPPPPPPPPPPPPPPPPPPPPPPPPPPPPPPPPLZAGPTJTJPPPPPPPPKYPPPJGZkzzklzvlzzlzvlzvzvvl",
"PPPPPPPPPPPPPPPPPPPPPPPPPPPPPPPPPPPPPPPPPPPPPPPPPPPPPPPPUUPPPPJUPPPPPPPPPPPPPPJGZlzzvzzzlvzkkzzlvlzz",
"PPPPPPPPPPPPPPPPPPPPPPPPPPPPPPPPPPPPPPPPPPPPPPPPPPPPPPPPPPPPPPPPPPPPPPPPPPPPPPYPGBvvkvzlzlvzvzlzzzlz",
"PPPPPPPPPPPPPPPPPPPPPPPPPPPPPPPPPPPPPPPPPPPPPPPPPPPPPPPPPPPPPPPPPPPPPPPPPPPPPPPPJJZzzvmzzvlzzvkzlzzz",
"PPPPPPPPPPPPPPPPPPPPPPPPPPPPPPPPPPPPPPPPPPPPPPPPPPPPPPPPPPPPPPPPPPPPPPPPPPPPPPPPUTANlzkzkzvlzlzvzlzv",
"PPPPPPPPPPPPPPPPPPPPPPPPPPPPPPPPPPPPPPPPPPPPPPPPPPPPPPPPPPPPPPPPPPPPPPPPPPPPPPPPUPPZvzzmzllzzlvzlvzl",
"PPPPPPPPPPPPPPPPPPPPPPPPPPPPPPPPPPPPPPPPPPPPPPPPPPPPPPPPPPPPPPPPPPPPPPPPPPPPPPPPPPJJCzvzzvzvlzlzvzkz",
"PPPPPPPPPPPPPPPPPPPPPPPPPPPPPPPPPPPPPPPPPPPPPPPPPPPPPPPPPPPPPPPPPPPPPPPPPPPPPPPPPPPPGmzzzzlvlvzlvlzl",
"PPPPPPPPPPPPPPPPPPPPPPPPPPPPPPPPPPPPPPPPPPPPPPPPPPPPPPPPPPPPPPPPPPPPPPPPPPPPPPPPPPPPUZzmzllzzllzzzlz",
"PPPPPPPPPPPPPPPPPPPPPPPPPPPPPPPPPPPPPPPPPPPPPPPPPPPPPPPPPPPPPPPPPPPPPPPPPPPPPPPPPPPPJDlzvzzlzzzlvzlv",
"PPPPPPPPPPPPPPPPPPPPPPPPPPPPPPPPPPPPPPPPPPPPPPPPPPPPPPPPPPPPPPPPPPPPPPPPPPPPPPPPPPPPTGmkzvlzzvlzzkzl",
"PPPPPPPPPPPPPPPPPPPPPPPPPPPPPPPPPPPPPPPPPPPPPPPPPPPPPPPPPPPPPPPPPPPPPPPPPPPPPPPPPPPPPbzvzlvzkzkvlzzl",
"PPPPPPPPPPPPPPPPPPPPPPPPPPPPPPPPPPPPPPPPPPPPPPPPPPPPPPPPPPPPPPPPPPPPPPPPPPPPPPPPPPPPGzzklzzvvlzkvzlz",
"PPPPPPPPPPPPPPPPPPPPPPPPPPPPPPPPPPPPPPPPPPPPPPPPPPPPPPPPPPPPPPPPPPPPPPPPPPPPPPPPPPPPnzvzzzlzzvkkkkkk",
"PPPPPPPPPPPPPPPPPPPPPPPPPPPPPPPPPPPPPPPPPPPPPPPPPPPPPPPPPPPPPPPPPPPPPPPPPPPPPPPPPPPLvkzvvkvkkzmwwtww",
"PPPPPPPPPPPPPPPPPPPPPPPPPPPPPPPPPPPPPPPPPPPPPPPPPPPPPPPPPPPPPPPPPPPPPPPPPPPPPPPPYKJBvzkzzkzzzvy>>>>=",
"PPPPPPPPPPPPPPPPPPPPPPPPPPPPPPPPPPPPPPPPPPPPPPPPPPPPPPPPPPPPPPPPPPPPPPPPPPPPPPPPYJBkzvzvzvmvvi,=**>=",
"PPPPPPPPPPPPPPPPPPPPPPPPPPPPPPPPPPPPPPPPPPPPPPPPPPPPPPPPPPPPPPPPPPPPPPPPPPPPPPYYJvvzzlvkbzkzf8>=::==",
"PPPPPPPPPPPPPPPPPPPPPPPPPPPPPPPPPPPPPPPPPPPPPPPPPPPPPPPPPPPPPPPPPPPPPPPPPPPPPPPPnvkzvmzzmzzk,======>",
"PPPPPPPPPPPPPPPPPPPPPPPPPPPPPPPPPPPPPPPPPPPPPPPPPPPPPPPJAGUUPPPPPPPPPPPPPPPPYYGBvvlzlvzkktm=*==>=>>=",
"PPPPPPPPPPPPPPPPPPPPPPPPPPPPPPPPPPPPPPPPPPPPPPPPPPPPPPRLNvALPPPPPPPPPPPPPPPJYAmzvkzlvzflt======:====",
"PPPPPPPPPPPPPPPPPPPPPPPPPPPPPPPPPPPPPPPPPPPPPPPPPPPPUIJZkvmZAUPPPPPPPPPPJGGZBmvzzlzzmzaw3*>==*==>==>",
"PPPPPPPPPPPPPPPPPPPPPPPPPPPPPPPPPPPPPPPPPPPPPPPPPPPPUUZNkzzzNNZAGGPUPJGGAZZmzkzlzzlvzzm3>====3::>==>",
"PPPPPPPPPPPPPPPPPPPPPPPPPPPPPPPPPPPPPPPPPPPPPPPPPPPPPLZzzvmzxzzmZZmZZBZZNmzmzkzmlzvmzkk3==>>>======>",
"PPPPPPPPPPPPPPPPPPPPPPPPPPPPPPPPPPPPPPPPPPPPPPPPPPPYYbzkzlzkzzzvkzvzzzzkzxzvvkkzvkzzmzm=>=====>>=>==",
"PPPPPPPPPPPPPPPPPPPPPPPPPPPPPPPPPPPPPPPPPPPPPPPPPPPUAvzvzmvzzvmzzlmzzklzzvzkzzkvkvmzzvw*>====>==>=>=",
"PPPPPPPPPPPPPPPPPPPPPPPPPPPPPPPPPPPPPPPPPPPPPPPPPPPZbvzzlzkzmzzmvzlmzzzzmzmzvkvzzzzzkk3===>>==3===>=",
"PPPPPPPPPPPPPPPPPPPPPPPPPPPPPPPPPPPPPPPPPPPPPPPPTJZvkzvzlzvzlzlvzzzlvzvzvkzkzlzvzlvzks:1=====1===>==",
"PPPPPPPPPPPPPPPPPPPPPPPPPPPPPPPPPPPPPPPPPPPPPUPPHGmzvkzvzvlzzlvzvklzzvkvzvlzlzzklzzvm91===1==1====>=",
"PPPPPPPPPPPPPPPPPPPPPPPPPPPPPPPPPPPPPPPPPPPPTJKFZmzvzzzllvzlzzzklvvlkvzlzzlvvzlvkzkzt=1=========>>==",
"PPPPPPPPPPPPPPPPPPPPPPPPPPPPPPPPPPPPPPPUPPPPJJZCzxlzkvlzzlzzzvlzzkzzzlkzzlzkzvzkzvlkm======11======>",
"PPPPPPPPPPPPPPPPPPPPPPPPPPPPPPPPPPPPPPTJPPTGZBkzzzmzlzlllzzllvzllvzkkzvllvzkzkzzlvzi=>==1=*===*=3===",
"PPPPPPPPPPPPPPPPPPPPPPPPPPPPPPPPPPPPPJJGGZZmmmzzmzmzzzvzzvlzzllzzlvzzvzzvzlzvzlvvzf3=>=*1=*>==*>*==>",
"PPPPPPPPPPPPPPPPPPPPPPPPPPPPPPPPPPPJZNmNvzzzzzzmvzzmvzzvlzzzkzzlzzvllvzlkvvzlvzzzkt=>113383>833>3>33",
"PPPPPPPPPPPPPPPPPPPPPPPPPPPPPPPPPPPPGzzmzmmzvzmzzkmzlzkzvlvlzvzvzvkzkzzzvlzkzlzvvkt=<*1====>==>*=>=>",
"PPPPPPPPPPPPPPPPUPPPPPPPPPPPPPPPPPPPJmlzlzzlvlzllvzzlvzlzlzlvzlzvkvzlzlvkzzlzkzkzzr====>===>=>>===>=",
"PPPPPPPPPPPPPPPPUUPPPPPPPPPPPPPPPPPPJvvlzvlzzzlzzlmzzkzzzvkzzzvllzzzvlzkvzlzvllvvbt:>>==>>========>=",
"PPPPPPPPPPPPPPPPIUAGPPPPPPPPPPPPPPPPPzvzlzzzvzlvlzzlvzzllzlvvlzlzkkzzkzzlzvzkzvlzza*==>===>=>==>=>==",
"PPPPPPPPPPPPPPPPUZZHPPPPPPPPPPPPPPPPJzzkvlvlzkzlzvzlzvlzzlvzzzlzvlzvvzlvvkzvzvzzzvi==>===>==>==>===>",
"PPPPPPPPPPUUPPPPZNzDPPPPPPPPPPPPPPPPGzzmzkzlzlvzlvlvzvzlvlzvvzlvzlzzzvlzzkzvzkzlzzt*==>>==>=>===>==>",
"PPPPPPPPPPPUPPUZmmzZPPPPPPPPPPPPPPPJZkmzvzzvkzzzzzzlkzvlzzkzzkzzzzlvvlzzlzvllzzzzvk8>===>=>===>=>==>",
"PPPPPPPPPPJUJDbzzzzNGYPPPPPPPPPPTKPGvvzlzvzzzvlzzlvzzzzzzzlvlzzlkvkzzkvzvzzzvzlvvzzit>===>===>=>====",
"PPPPPPPPPPJHANzzmzzzZPPPPPPPPPPPJTGZzvlzllzlvlzllzzllvzlzlzlzvlzvlzvlzkvkvzlzkvkzvzvkw>>===>=>===>>=",
"PPPPPJYJPLZZmmzzzkzzvnYTPPPPPPJTYJZZzzmzzlzlvzvzvlzzzlzvlvlvzlzllvkzzlzlzklzzvlzzzlvzkw>:=:>==>====>",
"PJPPJJGGAbvkzzzmvzlvzBALPPPPPPPKPDmzzvmzvllzzvlzzzlzlzlllzzkzzzvzkvzlzkzlzvkzkvkmzkzzlkw:*===>==>>==",
"AGAGZZvzzzzzzlzmlvlzvmmALJUPPJTGZbzmmzzzlzvlkvzllzlvvzlzzlvzzvlzvzzvvzkvvkvzzlvzkvzmkzlf3>====>>==>=",
"NmNmmzkkzvzkmzkzzlzvzzvzNZLZGZBZmzzzvmzlzzzzzlzzzlzkzvzzlzzvvlzllzkzzvzlzvzvlzlzzmzzzvvkw3==>====>==",
"zkzmlzkzvzzlzvzzzzzllzvzzzmNvzvzkzvzzlzllvzkkzvllvzkzkzzzvkzzlvzzzlvvlzzzzlvlvzkkzvllvzkf==*=>>===>=",
"vzkzzlvvzvlzvkmzvllzvlzlzzzzzkzzvlzlkzzvzlvzzvzzvzlzvzlvzlzvkzzzzvzlzzlzzlvzzlvzzvzzvzlzzw=3====>=>=",
"lzlzvzzzkzzlkzzmlzllzzmzzmmzlvvlzzzlzvvzlzzllvzllzvzlvlzzlvzzllzvkzvvzkvkzzkzzvllvzlkvvzm8=*>==>=>==",
"vlzvlzlzvlvlzvzlzvzzmzzlzzmzzkzzkvmzzlzkzvlzzzlzvlzzzlzvlzlzlzvllzklzkvlzvlzzvkzkzzzvlzkzm3>>==>===>",
"zzzzzlvzkzlvzkzlzzvzvzzzlvkvzlzlzlvzlvkzlkzlzvzlvzvzvzlvzzlvzvzzzlzlvzzzzkzzkzvzkvzklvzkzf3*====>===",
"mzvllzzlzvvzlzzzlvzkkvzlvzvlzzzvkzzkvkzvvzkvvlkzzklzzkkzzvzlkzvklzkzkvzlvzlvvlzvzllzzlvzzl3*======>=",
"zzvzzvlzlzmzvzlvvllvzllzzlvzzvvzzvlzzlzzlzvzlzvklvzlzzzlvkzvzzkvvzkvzklvlvzzkzzllzvkzzvlzz,>*3=3=>=>",
"llzlkzvlmzzvzkvkkzkzkzvkkzzkklzkvlzzzzlvvlzzzzzvvkzzzvkvlzkllvzlzvzllzvzzlzvvzlzzzzvzvkzlvw======>==",
"zzlzzzzzkzzkvlzvvzvzkzvzzvlzzkvzzlvzzvkvzvzzzlzlvzzllvzvvzvzzkzvvlzvvzlvzkzkkvkzlvkvzzzkzv3======>==",
"lzvklvzlzmvkkzkkzzlzvlzvzkvklvzzkzkvzlzzkzvklzkzzvlzzlkzlzzklzvlkzklzkvkvllvvlzvvzvllzvlmk3=1=3==>=>",
"zlvzzllvzzvulfvzlvzkkzzlzlvzzvlzlvvzzlvkzzkvvzkvkzzzlzzlzlkvvzlzvzkzvlzzkzvlzzzlzlvzzzvzzm3==>====3=",
"zvzvlzlzmzz85kzlzlvzvzlzlzlzkzvlzkzvlzkzlvzlzvzlvlvkvkzvzzvlzkzzzzzvzzlzzvzzlzkzkzzklvzkht3>===>>===",
"lzlvzzlzvm>*3kmzzlzvzzlzvzvzzzlvvzzzlvzvzvlzkzvlzlvkvzzzmvzmzlvzlvzvkvzlzzvzlzlvzzzkvlzzzw==>=====1=",
"zlvzvmbkk>=*=ikvlzzlmzvlzvkvzlvzzlzlvzzvzlzvzvzzkzzvzzzmkzkzkzkvzlkzvlzzlvzkzzvzzvlzzzlzm>*=*=1=3===",
"kzzkzffy3==>=whmvzlzzlvzkvzlvlzvvzzvzvzzzlkzlvzkzvzzNhzzlzlvlvvzlzzlkzzkvllvvzzklzzvlzlvt23*3=====*3",
"tykfyw3>>====*wazlzvzlzkzlkzzzkkkzNzkllxvzvzkzvmvlzlzzmmvlzzzkzvvkzvzvlzkzkzkvlzvlvlzlzlaam*>31=====",
"8333>>=>*===>=3mlvzkmzzmkmzvzlfwizzhkkhtamkzzzvzzkkzkvhzzvzkzlzlkvlvzkzvvzvlzvlvzlzlzvzzhmm==33=====",
"===>=*=>==>=>==3ikzvzzmzzzzkzfw=,,wttt8m,tykmkzklzzztammkzvzzvlzzzzklzvlzzkkkzzklzzvkmkvk8&=><>3==3=",
"=========3======1takzmzkvzzkiw=====>=3==>=3iikkzkkit83fazvkvkvkzzlvzvzzzlzkkvzvzzvvzzzkkt===*<<>8===",
"=>>==>>====>=>>==*wtatmflfat3===**>=>===*=3==mttyt,3=>3mklzlzlvzlzzvkvzlktymkkzvzlzkvkfy3====*=>81=*",
"===>=>>==>>=>====3==>3wm=*>*==:===>>==>===>=>==*=*>=>=*>ezmzzvmzzhhkkkmmm=&mavhakykkkiw====3===>19*=",
">>============>>=====>>>**::==>=>====>==>=>===>*=========8tzmkkmzNxmkkt3&====,9mlmtt3>>*3====>==1=8=",
"==>=>==>>==>=>==>=>===>=*====>==>=====>>=>===>=>=>=>=>>===113uffkmmt913=====3*3>>3==>===*===>=>==23=",
"=>==>==>>==>==>===>=>====*=====>==>>>======>=>=====>=====1*3=333>=31=1========>=>==3==>>*=3===>=<35=",
"==>=>======>=>===>==>==>===>>>==>======3>==>==>=>>====>>==3==>==*=====1===*==>==*=>==>===>>===>==<><",
">=>===>==>===>=>==>=>==>>>=====>==>=>>==>==>=>=====>>=====>==>=>====1===*=*==>=>======>=====>=>==35=",
"=>===>=>>=>=====>>========>====>=>=>==========>>===>>====>====>=>=>=1====1====>===>>>>==>==>=>====32",
"===>=>====>=3======>=>>==>==>>===>===>===>>=>===>>====>>===>>=====>====1===2>===3======>>==>===>*=3=",
">==>===>===1===1==1======>==>>=====1===1=3=====*==>===>===1=1==>=>==>>=====1===3=3========>===>===52",
">==>=>===*==1==1======**==>====>=*==1==1=======*=>==>=>========3==>====>=*==1==========2=>==>=>=*>9*",
"====>=>==<>*====3==1===<>>=====>=<>*====>==13=*===>>=>==*=*<====>>=====>=<>*====>==33***==>>=>==33>3",
"=>>===>==*<>==1=>===3=<2===>>>===*<>==1=>==1==<>>======>*<=>=3=====>>>===*<>==3=>=====*>>======>*3*=",
"<3>333<3>3>3<3333>3>>3>5<3>3,,7,>3>3<3333>3>>3>2<>333>3<>3>22>3><3>33>3>>3>3<3>33>3>>3><<>333>3>3>>=",
">25335><>3><>>>83>5<33><>253,,53>3><>>>83>5<>3523>3>53<>>352>253>2533>55>3><>3>33>5<38533>3>53<33=*=",
">>=3<=>>11*=>5=3*=2>3=2*>>=3<=3>11*=>5=3*=2>=3=2>511*>3>=3<=>>3>>>=3<=23=3=2>5=1**2>1=*=>511=<>>=>=>",
"=<===<>>==2<=<==*<><===*><===*>>==2<=<==*<><==2**<==**<>=*=<>>=>=<===<=<==2**<==2><>==2<=<=***>>=>==",
"<=<*==1===>===>===>>==>===>===>>===>>===>==>===>>===>==>===>>===<=<===>>==>===>===>>==>===>===>>===>",
"*===1====3==>=>=>====>==>=>=>====>====>=>==>=>====>=>==>=>====>=*===>====>==>=>=>====>==>=>=>====>==",
"====1=====>>=>==>=====>>=>==>===>=>==>=>====>=>==>=>====>=>==>=>====3=====>>=>==>=====>>=>==>===>=>=",
"=1=====1>======>==>>>======>==>>==>==>===>>===>==>===>>===>==>===1=====1>======>==>>>======>==>>==>="
};
