/* XPM */
static char *_ef624a8cb5f4777fcf18e59bb49cb47O6yvlzY9nbbnY7ud[] = {
/* columns rows colors chars-per-pixel */
"100 100 67 1 ",
"  c #62A958",
". c #63AB5A",
"X c #6CB069",
"o c #72B474",
"O c #77B67A",
"+ c #82BE8E",
"@ c #89BF92",
"# c #8CC094",
"$ c #8AC298",
"% c #8DC99E",
"& c #8EC99E",
"* c #8FC99F",
"= c #93C39C",
"- c #93C69F",
"; c #8EC9A0",
": c #8FC9A1",
"> c #8FCAA0",
", c #90C9A0",
"< c #91CAA2",
"1 c #91CBA4",
"2 c #93CBA4",
"3 c #94CCA6",
"4 c #95CCA7",
"5 c #98C8A4",
"6 c #9AC8A5",
"7 c #96CBAB",
"8 c #97CCA9",
"9 c #97CCAA",
"0 c #97CBAC",
"q c #97CCAC",
"w c #9FCBAB",
"e c #98CDAB",
"r c #99CBAD",
"t c #9BCBAE",
"y c #99CDAD",
"u c #99CEAE",
"i c #9BCCB0",
"p c #9BCDB0",
"a c #9CCCB2",
"s c #9CCEB3",
"d c #9ECFB3",
"f c #9DCCB4",
"g c #9FCFB4",
"h c #9FCEB6",
"j c #A1CDAE",
"k c #A0CEB4",
"l c #A4CFB6",
"z c #A0D0B4",
"x c #A2D0B6",
"c c #A5D1B7",
"v c #A9D1B7",
"b c #A3D0B8",
"n c #A5D0B8",
"m c #A6D2B9",
"M c #A7D2B9",
"N c #A7D1BA",
"B c #AAD1BA",
"V c #ABD3BA",
"C c #ADD3BA",
"Z c #AAD2BC",
"A c #AED3BD",
"S c #ACD4BC",
"D c #ADD4BC",
"F c #AFD4BD",
"G c #B0D4BD",
"H c #B0D5BE",
"J c #B1D5C0",
/* pixels */
"FFFFFFFFFFFFFFFFFFFFFFFFFFFFFFFFFFFFvww5--@O.  X#rflgagfaggafgagsafsafsagfagfagagxVFFFFFFFFFFFFFFFFF",
"FFFFFFFFFFFFFFFFFFFFFFFFFFFFFFFFFFFFFFAAFFl5@Oo+afaaaasaafasfaaagaaggagaafgafaagaagMSFFFFFFFFFFFFFFF",
"FFFFFFFFFFFFFFFFFFFFFFFFFFFFFFFFFFFFFFFJFFFFGj,tfffsagfagaagaggaafgafafgasaaaggagaagfVSFFFFFFFFFFFFF",
"FFFFFFFFFFFFFFFFFFFFFFFFFFFFFFFFFFFFFFFFFFFJGGGBbfasgaffafgafasfsgaaagaagfagsgaaafgafxbmSSFFFFFFFFFV",
"FFFFFFFFFFFFFFFFFFFFFFFFFFFFFFFFFFFFFFFFFFFFAFJFScaxaassaffafagaffagaggaaffagsafgaagsssfxxVVVVVZVmMx",
"FFFFFFFFFFFFFFFFFFFFFFFFFFFFFFFFFFFFFFFFFFFFFFFFFFMfgagaggasaggaaggafasgafasfagaaffaagaassfglxxgxfga",
"FFFFFFFFFFFFFFFFFFFFFFFFFFFFFFFFFFFFFFFFFFFFFFFFFFFbgffgafaggaagsaaafafagaagaaffgagsafgffsaasssssafa",
"FFFFFFFFFFFFFFFFFFFFFFFFFFFFFFFFFFFFFFFFFFFFFFFFFFFFmaaaaafasfasfaggagfaaggagsaggaagaagaafaaaagaaaga",
"FFFFFFFFFFFFFFFFFFFFFFFFFFFFFFFFFFFFFFFFFFFFFFFFFFFFFmxagaagsagfaffaafsafafsafaaaagaaffaggaggagfaffa",
"FFFFFFFFFFFFFFFFFFFFFFFFFFFFFFFFFFFFFFFFFFFFFFFFFFFFAVfasgafafgasffbhhfaffssgfaxfsffgaagaaasaasagfas",
"FFFFFFFFFFFFFFFFFFFFFFFFFFFFFFFFFFFFFFFFFFFFFFFFFFFFFFmfaagfsfccVVVFFVSZVlgsagaagaagfsagaffaagfaaggs",
"FFFFFFFFFFFFFFFFFFFFFFFFFFFFFFFFFFFFFFFFFFFFFFFFFFFFFFSbgasgmVFFFFFFFFFFVAVMgaaaaagaagaagasggafgasaa",
"FFFFFFFFFFFFFFFFFFFFFFFFFFFFFFFFFFFFFFFFFFFFFFFFFFFFFFFmfgMVVFFFFFFFFFFFFFFFVxffgsaagaagsagsagsaffag",
"FFFFFFFFFFFFFFFFFFFFFFFFFFFFFFFFFFFFFFFFFFFFFFFFFFFFFFFVMMFFFFFFFFFFFFFFFFFFFFZxfaffffffafagfafaagfa",
"FFFFFFFFFFFFFFFFFFFFFFFFFFFFFFFFFFFFFFFFFFFFFFFFFFFFFFFFFFFFFFFFFFFFFFFFFFFFFFAVxgsaagsaggaafaggasaa",
"FFFFFFFFFFFFFFFFFFFFFFFFFFFFFFFFFFFFFFFFFFFFFFFFFFFFFFFFFFFFFFFFFFFFFFFFFFFFFFFFVxsagaagfafaagaaggag",
"FFFFFFFFFFFFFFFFFFFFFFFFFFFFFFFFFFFFFFFFFFFFFFFFFFFFFFFFFFFFFFFFFFFFFFFFFFFFFFFFFSxsssafaggagaagafga",
"FFFFFFFFFFFFFFFFFFFFFFFFFFFFFFFFFFFFFFFFFFFFFFFFFFFFFFFFFFFFFFFFFFFFFFFFFFFFFFFFFFVfagaffaagaafaafas",
"FFFFFFFFFFFFFFFFFFFFFFFFFFFFFFFFFFFFFFFFFFFFFFFFFFFFFFFFFFFFFFFFFFFFFFFFFFFFFFFFFFFmflaasafagsgfgaaf",
"FFFFFFFFFFFFFFFFFFFFFFFFFFFFFFFFFFFFFFFFFFFFFFFFFFFFFFFFFFFFFFFFFFFFFFFFFFFFFFFFFFFFxaasagfagaafagga",
"FFFFFFFFFFFFFFFFFFFFFFFFFFFFFFFFFFFFFFFFFFFFFFFFFFFFFFFFFFFFFFFFFFFFFFFFFFFFFFFFFFFFVgssfgagafaagaag",
"FFFFFFFFFFFFFFFFFFFFFFFFFFFFFFFFFFFFFFFFFFFFFFFFFFFFFFFFFFFFFFFFFFFFFFFFFFFFFFFFFFFFFxsgfaaasggssgaa",
"FFFFFFFFFFFFFFFFFFFFFFFFFFFFFFFFFFFFFFFFFFFFFFFFFFFFFFFFFFFFFFFFFFFFFFFFFFFFFFFFFFFFFVfaafgagaagafag",
"FFFFFFFFFFFFFFFFFFFFFFFFFFFFFFFFFFFFFFFFFFFFFFFFFFFFFFFFFFFFFFFFFFFFFFFFFFFFFFFFFFFFFVgsgasgaafagaff",
"FFFFFFFFFFFFFFFFFFFFFFFFFFFFFFFFFFFFFFFFFFFFFFFFFFFFFFFFFFFFFFFFFFFFFFFFFFFFFFFFFFFFFlfsgsaffagasags",
"FFFFFFFFFFFFFFFFFFFFFFFFFFFFFFFFFFFFFFFFFFFFFFFFFFFFFFFFFFFFFFFFFFFFFFFFFFFFFFFFFFFFZffsaggaagaaaffa",
"FFFFFFFFFFFFFFFFFFFFFFFFFFFFFFFFFFFFFFFFFFFFFFFFFFFFFFFFFFFFFFFFFFFFFFFFFFFFFFFFFFFZmafaaaaaggasaaag",
"FFFFFFFFFFFFFFFFFFFFFFFFFFFFFFFFFFFFFFFFFFFFFFFFFFFFFFFFFFFFFFFFFFFFFFFFFFFFFFFFFFFVfffafaxaaau92333",
"FFFFFFFFFFFFFFFFFFFFFFFFFFFFFFFFFFFFFFFFFFFFFFFFFFFFFFFFFFFFFFFFFFFFFFFFFFFFGGFFFFFxaagffaaffa4:>%>:",
"FFFFFFFFFFFFFFFFFFFFFFFFFFFFFFFFFFFFFFFFFFFFFFFFFFFFFFFFFFFFFFFFFFFFFFFFFFFFSFGFHFxaaggafaxaf7:%%>>>",
"FFFFFFFFFFFFFFFFFFFFFFFFFFFFFFFFFFFFFFFFFFFFFFFFFFFFFFFFFFFFFFFFFFFFFFFFFFFFFFFFVxfafaagfafau<&:%%>%",
"FFFFFFFFFFFFFFFFFFFFFFFFFFFFFFFFFFFFFFFFFFFFFFFFFFFFFFFFFFFFFFFFFFFFFFFFFFFFFFFFcagasgaafasa<>&&>%>%",
"FFFFFFFFFFFFFFFFFFFFFFFFFFFFFFFFFFFFFFFFFFFFFFFFFFFFFFFFmVFFFFFFFFFFFFFFFFFFFFVmafgagfaaar0>%>:%:%&%",
"FFFFFFFFFFFFFFFFFFFFFFFFFFFFFFFFFFFFFFFFFFFFFFFFFFFFFFFSxfmSFFFFFFFFFFFFFFFFSmgaaaaasadq::%%%>&:%:&:",
"FFFFFFFFFFFFFFFFFFFFFFFFFFFFFFFFFFFFFFFFFFFFFFFFFFFFFFFbsghxmAAFAAFFFFFFFFVmxfafgfaggas3%&&&>&:&&&:%",
"FFFFFFFFFFFFFFFFFFFFFFFFFFFFFFFFFFFFFFFFFFFFFFFFFFFFFFMxaasafbbmVVFFFFVZmxbfgagfafgaaas2:%:%:&&&%:&&",
"FFFFFFFFFFFFFFFFFFFFFFFFFFFFFFFFFFFFFFFFFFFFFFFFFFFFFVbasgaafgfgxxxxamxbfgafgagafaasaaa>%&&:&&%::&:%",
"FFFFFFFFFFFFFFFFFFFFFFFFFFFFFFFFFFFFFFFFFFFFFFFFFFFFAbafaagfaassasffxaafaafsaaasfgafagu%:%:%:%:&%&%:",
"FFFFFFFFFFFFFFFFFFFFFFFFFFFFFFFFFFFFFFFFFFFFFFFFFFFFmfgffagaafsaagfgafgagagsgfagagaass9%&:%:%:%&&%&&",
"FFFFFFFFFFFFFFFFFFFFFFFFFFFFFFFFFFFFFFFFFFFFFFFFFFFmffaasgaaxaffgaaaafasfaagafgagaaaas3>&%:&&%:%&:%:",
"FFFFFFFFFFFFFFFFFFFFFFFFFFFFFFFFFFFFFFFFFFFFFFFFFFVfafgaafsagfagagsagsaggaffagfasagffu%&&%%>%:%::%:%",
"FFFFFFFFFFFFFFFFFFFFFFFFFFFFFFFFFFFFFFFFFFFFFFFFFmgsgfasgagaafgafaaffagaagaagafgafgau7%<<&&&:&&&%:%:",
"FFFFFFFFFFFFFFFFFFFFFFFFFFFFFFFFFFFFFFFFFFFFFFAVxggsagaffafgasaagsagaagaagagaasaagaf7%%%&:&:&&&:&%:&",
"FFFFFFFFFFFFFFFFFFFFFFFFFFFFFFFFFFFFFFFFFFFFSFmlssagaagaagaagfagagaagfafgasfaggaaaaa7>%<:&&&:&:&&:%&",
"FFFFFFFFFFFFFFFFFFFFFFFFFFFFFFFFFFFFFFFFFFFVMxaafsaafagagasgaagagafgasgasagsgafggaaq%>%%&&:%%>&&%%%:",
"FFFFFFFFFFFFFFFFFFFFFFFFFFFFFFFFFFFFFSFFVMbxgafsgsfffaagffaaffagasfaggaaaffaafaasg93%%>%:&%%%:>:>:%:",
"FFFFFFFFFFFFFFFFFFFFFFFFFFFFFFFFFFFFmcffaaaasssfgaaaaggaagaffaagafgaafafgaagaggaaa9><<<<>:>:>><><&>:",
"FFFFFFFFFFFFFFFFFFFFFFFFFFFFFFFFFFFFBadaagagagsafaffsgaafasgasgagaagafgaffasfasfga9%>%%%&&::&&:%>%&&",
"FFFFFFFFFFFFFFFFFFFFFFFFFFFFFFFFFFFFFgaaagfagaafagsagsagsagsaffaagaagaagaafaafaaaa7&%:&&&%:&:&:%::&:",
"FFFFFFFFFFFFFFFFFFFFFFFFFFFFFFFFFFFFSggggafgafgagaafaffaafaggaagffgasfaggssgsggsfa7&&%:%&:%&%&%:&&&&",
"FFFFFFFFFFFFFFFFFAmVFFFFFFFFFFFFFFFFFagaaasafagsfggssaaaggaasfgagaagaffafaafgaagfa7&&:&::%:%:%&&&&&:",
"FFFFFFFFFFFFFFFFAmlVFFFFFFFFFFFFFFFFSgafaggagaafaafagaggfafaaagaasgagaagasgaaagaff7%:%&:%:%:&&%::%:%",
"FFFFFFFFFFFFFFFFVffmFFFFFFFFFFFFFFFFVfaffgafafaagaagaggaafgagfagfagagaaggfaffaffafq%%%:>&%:%:%&%%:%&",
"FFFFFFFFFFFFFFFxssamFFFFFFFFFFFFFFFSmgaasaafsggsafffaaafgasfafgagaafsgaagagaagaglau<:%%%&:&&%:&:&%:%",
"FFFFFFFFFFFFFZxfafghZFFFFFFFFFFFFFSFgafaaggagaagagsagsaffasaasaaaffaafagaagsggaasgaa4;&%:&:%&&:&&:%:",
"FFFFFFFFFFFVmgffassfbFFFFFFFFFFFSFFcsgasgaagaagagaagafgaaggafgagsgasgafffaagaafsaaaaa4::%&%:%:%&:%&&",
"FFFFFFFFFVmfxaaffaggaVFFFFFFFFFFFSMxafaagsaffafffgasgaagfaagaafsgaggafgaafgagaagafgagg3<:&:&:&:%%:&&",
"FFFFSFVVmafassaagaafsxmFFFFFFFFFAVxaafagaggaagagaafgsgaagagaaggaaasaafasgasfaagaafafsaa<&>&&%:%:&%:%",
"VVVmMxffasasffagaffaafgmVZAFFFFVcaaaffgsaaafggaagafaafagaagfgaafafgagaaffasagsffaaafgaau<>%%&%:&&:%:",
"gfxagasafgagaaassgasaassfmbVVmMxlafaaafsfaggaafsafasgaffgsafagafgaffaggaaggafaagxagaaafa<:>:&:%&:%:&",
"ssssagsafaafagfagsagaggagagffhfaafgagaagagsagaagagsaafsagaagagsaafaaffasfgagagaaafaffgag0>:%&&%:%:%:",
"afssgaagasgagaagagfafaaxfghssgaagasfagfafaafaffagaaggaagaafagaafsggsaagfaaasagfsaaggfaaah>:%:%:&&&&%",
"aasafafggsgsagffaaafsaaaafsssaaafasaaafagssggafsagffgaffgsgfsggsfaaggagaaggagaaggafaafgaa0:&%:%&&&&:",
"fffaagaafaagaagagagfagffafaagagfaggaggagafaagaagaagaagaagaafaafaasgaagaagaffaffasgasgasgfr:&&%:%:%:%",
"faaffagaaagsagsafsafsafsafsagfaggsagfaffagaagaafsagsagsaffagaagsafsagfagafaagsafsaffaffagu>%>;%>&&:%",
"xagaaggagaaffagaaggagaaggagaafgaaffaagaggaagaggaagagfaafaggaagafgagaafgagaaggagaaggagaagfa2%%>%%%:%:",
"aagsgaagaggafaggafsaafgafafgasaasaasfgaafffsfaasfgaafggssaaagfaafafgasaagfsgaagagaagfsagfx2%%%>;:%:%",
"gaafsfasfgaaagaaggafsgaaagaagfaggafgaagsaagafaggfagaaafafaggsagsagaagfagafaaffagsgaaagaaaa:%>;>%&&%:",
"gaagagsadafgaaaaafgagaaggasgaagaagaagaaggaafaggaagfagaagaffafaafgasgaagafagfasgaaffagaagfs:&>>>%:%:&",
"affafaafaaaagfaaaaafgagaffaaffaggaagaffaagsgasaafasgafgagaagasgaffaaffagassagfaagagaaffffa<&%%>%&&%&",
"gagsafgfaxa9ualagsafaagfagaffaagffsfgagsagsaffaffaaaafsagsafgfgsagaffaagaggaafagsagfagsaas>&&&:%:%&%",
"gaagaagaafu23aakaggafsaffasgasgaagaagaaggaafaggaaggagfagagaagaaffasgasgagaagafgaafsagaags0:&:&>%%:&:",
"aagaaafafu2%<aaagasgagfaaagaafsaafaaafaaffafgaagggagfagaagsaagaaaagsagsafgagsagfagfagaaga:%>%>%>:&&%",
"fsfflaaau2%<%eaasfaagafgagaggaagfslafaffaaggsgaaaaasfaaggaafaggsaggagaagfaaagaaffasgaafau>%%>%:&&:&:",
"faagarr7<%%>%<uaafafaaaaggaagaffaflafaaagafaafagaffaagaasggsgaaggaaffafgaggaaggafaaagffar7<<<&&:&&%:",
"9uuu73<>%<%%<%7agasgaggasaffagaaaasaagxgagasgaffgasgfgafaafaaffaagafagaafasfafafaggagaaxru<<::&&:>%%",
"><<<<,&&%%%<%*<7faaaxafgaaaaaau98aaaraauuaaaffaasassaaaafaagsafsagaagaaffaaagaagggagfafaf0<>::<&%:%%",
"%%%>&&%%<%%%*%&:9sgaaaaaafaagq:2<<92837933qaaaafafsauqaafggaagagfagasgsgagfaagfaaaasaafaf0&%&<>::%%:",
"%%<%&&::%<%<%*>&>3uafaaaxaaau>%%%%%%**%%%%33afaaagq9<<uaaadafgaasafgagsagaaaaagsaffalaaa7%%%&&&<::&&",
">%%%:&%%%%%%*%&:%>29euafuu77<%>>%<%%<%%%%>%%<<47923%%%<ugaaffagaagfafaafuq9ugaaggasgaa8e*%:>%>&:>:&:",
":%&%&%:&&%:&:&:%>>>%:>4:7>%%%%*%&:%&&:%:%:%:%&&&&%%:&>%:0ufsaaffaaaaaaaa7&:<rasasaagf7<>&>&&&:%&:<>&",
"%:&:&:%&&:%&%&%:>%>%:&%:%%<%%<%*&%:%:%:&&&&%:&&&&:&&&%%:%<qsafffagasaa7>%<&>&>40uq93>:>%%::&:%:&&<<:",
"&&:%:%:%:%:%:%&&%%%%%&&&%%%%&&<&%:%:%:%&&&&:%&&&&&%&&:&&%>%:390rsuu9:::%%%%%%::;%<>%&&:&%&&:%:%:%><:",
"%:&&%:%:%:%:&&%:<%<%:%:%<%<%&:&&:&&%&&:%:%:%:%:%&&:%:&%:%%>>>>>::2::::&%&%:>%%&&>%%>%:%&>&:&:&&%%<<&",
":&:%:%:&&%:%:%&%%%&&&:%::%&%:&&&%:%:%:&&%:%&&:%::%&&:%&%<%<%&&&&%%%%%&&:&%%>&&:%>%:&:&:%&&%:%:%:&&<&",
"%&%:&&%&&:&&%:&:>%:&:&:&%:&:&:&::&&&&%:%&%:%:%:&%:%:&:&:%%%%%::%%%2%:%:%>:&&%:%:>>&&&:%::%:&&&&%:&<&",
"&%&&:%&%:&:%&&:&&:&:%:%&&&:%:%:%%&&&&:%:&:%:%:%&:%:%&&:&:&<%:%:%*%%%&:%:&:&::%:%%:%&&%:&%:%&&&&:&:>&",
"&:%:%:&:%&%:%:%&:&&&&&:%%:&&%:&&:%:%:%:&:%&&&&:%%:&&&:&&&<%%&&%:>*%%&%:&&&:&&&%:%>%>&:%&&%:%:%:%:&<:",
":%:%&%:%&&:&:&:%:&:%&&%::%&&:%&&%>:>&&%&%:%::>&>&&:%:&:%:&&&:%&&%>&:&&&:&&:&:&&&&%:&&:&&&:%:%:%:&::>",
"%:%:&:&&:>&&%:%:%&%:&>%>&&%:%:%:&&%%:&:%:&&%&%&&%:&&%&%:&&&:&&%:>%&&:&:&&>&:&&%:&:%&&>%>:%:&&&&%:&<>",
"&%:&:&:%&%:&&%:&:%&&:&&&:%&%:%:%%>&:&:&:%&&:&:%&:&:%&%&&>::&:%&%%>%:%:&&%%&&:%&%:%:%:&:&%:%&&&&:&<::",
"&:%&%&%:&>&&&:%&&&&:&:&&%:&:%:&&%&<&:&&&:&&&:&&&%&%:&:%:&&%&%:&:>%>&&%:&:>&&%:&:%:&:&&&&&&:%:%:%<>%&",
"<<<<>:<&<:<<<<<<>:<:<:<<<<<<>:<&<<:&,::<>:><<:<<<:<&:<:<<<:<<::<<::,>:><<:<<<<<<>:<&<:<<<<:<>:><:>:&",
"&:<><<<><><&&:<><<<><<<&::<><<<><><<<<<,><:<<<:<<<<<><<:<>><<<<><<<:<<:<<<<&::<><<<><<<&&&<<><:<>%:&",
"&<::<&::&:&<&<::>::&:&&>&<:&<&::>:>::&:&,>:<:&>&&&:>&>:&:&<:&&::&::&,>&<:&&>&<:&<&::>&:>,<:::&:<&:%:",
"&&&&&&<&:&:&&&&&&&<&:&:&&&&&&&<&%&&&<&&,&%&&&&:<&&:>&&:&&&&&>&&&<&:,&%&&:&:&&&&&&&<&&:&&&&&&:&&&&%:&",
"&%>::%&%:%&&:%&&:%&%:%&&:%&&:%&%:&:%&&:%&&:%:&:%&&:%&&:%:&:%&&:%&>&&%:%:%:%&&:%&%:%:%:%&&:%&%:%:%&&:",
":%&&%:&:&&%:%:%:%:&:&&%:%:%:%:&:%&%:%:%:%:&&%&%:%:%:%:&&%&%:%:%:%%>%:&&&&%:%:%:&:&&&&%:%:%:&:&&&:%:%",
":&:&&&:&:%&%:%:%&&:&:%&%:%:%&&:&&%&&:%:%:&:%&%&&:%:%:&:%&%&&:%:%%&:%&&&&&:%:%:%:%&&&&:%:%:%:%&&&%:%&",
"%:&&%:%&%:&:%:&&%:%&%:&:%:&&%:%&&:%:&&%:%&%:&:%:&&%:%&%:&:%:&&%:>&>%:&:::%&&:&&%:%:%:%&&:&&%:%:%&%:&"
};
