/* XPM */
static char *_299627bb1aa472bb13339c84ca07a49kBEh48U2Fo69qM9y[] = {
/* columns rows colors chars-per-pixel */
"100 100 83 1 ",
"  c #61381A",
". c #60381B",
"X c #61381B",
"o c #62381B",
"O c #63391B",
"+ c #643A1B",
"@ c #653A1B",
"# c #663B1B",
"$ c #683C1C",
"% c #693C1C",
"& c #6A3C1C",
"* c #6A3D1C",
"= c #6B3E1C",
"- c #6D3E1D",
"; c #6F3F1D",
": c #6F401D",
"> c #72421E",
", c #74431E",
"< c #76441E",
"1 c #77441F",
"2 c #7A461F",
"3 c #7B471F",
"4 c #794620",
"5 c #7B4721",
"6 c #7C4720",
"7 c #7B4820",
"8 c #7D4822",
"9 c #7F4A24",
"0 c #7F4B24",
"q c #804B24",
"w c #804B25",
"e c #834E27",
"r c #834D28",
"t c #844F28",
"y c #854F2A",
"u c #86502B",
"i c #87512C",
"p c #88512B",
"a c #88522C",
"s c #8A532D",
"d c #8B532E",
"f c #8D552F",
"g c #8C5530",
"h c #8D5530",
"j c #8D5630",
"k c #8F5733",
"l c #8F5832",
"z c #8F5833",
"x c #905733",
"c c #905833",
"v c #915834",
"b c #925934",
"n c #935A34",
"m c #945A35",
"M c #955B37",
"N c #965C38",
"B c #985D38",
"V c #985D39",
"C c #9A5F3B",
"Z c #9C5F3B",
"A c #9B603B",
"S c #9C603B",
"D c #9B603C",
"F c #9D623D",
"G c #A0633E",
"H c #A1643F",
"J c #A26440",
"K c #A36541",
"L c #A56743",
"P c #A66843",
"I c #A76844",
"U c #A76944",
"Y c #A96A45",
"T c #AA6A46",
"R c #AB6B47",
"E c #AB6C47",
"W c #AC6C47",
"Q c #AB6B48",
"! c #AC6B48",
"~ c #AB6C48",
"^ c #AC6C48",
"/ c #AF6E4A",
"( c #B06F4B",
/* pixels */
"^^^^^^^^^^^^^^^^^^^^Uxcccccczbjbkzkzbzbke28375758375758375822582375237582758582758223822582758223822",
"^^^^^^^^^^^^^^^^^^^^Kccccccckbbzjbbzjbbj852228322228322228573732228285732322732322857573732322857573",
"^^^^^^^^^^^^^^^^^^^^Rcccccccbzzbbkzbkbbj272823722223822225837375582827523237223238275758223238275758",
"^^^^^^^^^^^^^^^^^^^^Rbcccccfjbzzzbbjkbjy232222583857573837225228732523827285857275238322857275238322",
"^^^^^^^^^^^^^^^^^^^^Wcxcccbmbbjbjbkbbzb0252508257582237522738375582728325822375832572758223832572237",
"^^^^^^^^^^^^^^^^^!(^WSxcjmR^Fjbjbijljbj5256ijfe22857573238522228732325722285857372832322857572837322",
"^^^^^^^^^^^^^^^^KVUR^RxccN^^Ullbj5dbkbd722ebbbj82583837275822223223237583827275258223237375758225238",
"^^^^^^^^^^^^^^^RmdZ(R^HjbcFKMllbzfjbzzy552ebblf53722225828573857857285737523238222857285228322858275",
"^^^^^^^^^^^^^^^^KVR~^^^Vjbjllcccbbkkbbr5223gblu58522227323758375582758222832325738222238275858273257",
"^^^^^^^^^^^^^^^^(^RE^^^^Nkbjccccjbjbzbr75528r6772738385257322228732322852572728375738575232273237283",
"^^^^^^^^^^^^^^^^^^^^^^^^Rjbbccccjbbzjbi5727752322375758283722223223238273758582257583757323722325822",
"^^^^^^^^^^^^^^^^^^^^^^^^^Vjcccccbzkbbbj8725565755732285722583857857275238573228583222283728585722285",
"^^^^^^^^^^^^^^^^^^^^^^^^^Vjbcccczbzbkzbi525237568375758385227223223832572758582722375822582237583822",
"^^^^^^^^^^^^^^^^^^^^^^^^Qxcccccczkbjjbbze26265732228322227385857857572832322732373222285228585737573",
"^^^^^^^^^^^^^R^^^^^^^^^^Njccccccbzbbbkzbfe5557522223822223758582375758223237223252383827382727525758",
"^^^^^^^^^^KVSR^^^^^^RKKmjcccccccjbkzzbbjbi2223653857573857322732228322857285857282757523752323828322",
"^^^^^^^^^RcjjF^^^^FANjfjccccccccccllccccccu277827223756375652565582758223822223828323257325757282237",
"^^^^^^^^^KbbcV^^^DjjxcHPVbcccccccccdudccccxe52275857325256573732732322857573857525727283728383257322",
"^^^^^^^^^^DbmU~^KxcbcH^^Rjzkccccccy222wjccbj65235782652525637375223238275758375737585822582222375238",
"^^^^^^^^^^^UR^Q^FjbccK^^Ebbbccccld22782ubcbjy5858032573637525256857275238322228385732285228573228275",
"^^^^^^^^^^^^^^~(CjbzlmRRKzbzbzzbby253658blbbu228lle2237525736375223832572237582227585827382222383257",
"^^^^^^^^^^^^^^~(Djbzclbcjbjbjkbjbd28222eblzle22ebce2287336525256857572837322228523227323757385757283",
"^^^^^^^^^^^^^^^^Fbbbjbbjkzjbbzzbbj82525jjbbj6557yy22837275652523375758225238382732372232575837575822",
"^^^^^^^^^^^^^^^^Rbjzblcbbzbzkbkbllfewyibblxr25632238222856573657228322858275752372858572832222832285",
"^^^^^^^^^^^^^^^^QFxxbzbbjbkzkzbzbjbllbbzccd333526525257323756375223822376525256658282758582758223822",
"^^^^^^^^^^^^^^^^^^ccjbkzbzjbbzjbzbzkbjbzld8227655736365257325256857573225736365222782322732322857573",
"^^^^^^^^^^^^^^^^WWFfkzjbjbbzjbzlbbjbzbkba82576572375756563752523375752382375753637223237223238275758",
"^^^^^^^^^^^^^^^^^RRcbzbzbzkbblNbkzbzbjbi822675235732565752563657228382755732562583827285857275238322",
"^^^^^^^^^UKQQ^^^^^^FxxbkzbzbkN^mccccbjy565252573637575636525752337525728637538>=%-835282223832572237",
"^^^^^^RRGcjmR^^^^^^ZfbzbzkbjbmVbccccd0225737365252563252573656572282832552562:+O+O+<8233857572837322",
"^^^^^^^RbcbjF^^^^^Rbjbkjbzbbzbkzccfu22652373756525236525237565655828223733282.OOOOO%2875375758225238",
"^^^^^^^RbxcjFR^^^^Fjbzzbjbkzbjbkca2<8572565256573657573657325732732573283832>OOOOO++2228228322858275",
"^^^^^^^^FbbNR^^^~Kjbkbjbbjkbbzlla28e6536223822375237822582237223375237565756>OOOOO.O7525223822373257",
"^^^^^^^^^UK^Q^^^Kkzjzzbzzbzzjlbf3wjcd665857573228285573732285857256565732325<OOOOOO=5282857573227563",
"^^^(/^^^^^^^^^LVjjzbbjbkbkjbbzbr2ycxjy523757523828222373722585825656575282838:OOOOO25622375752385652",
"JKVVVCCFHKGFVmbjbbkbzbzbbzbzzbl82ecnj62222838275257328525837273273252365283322>%%:<32577228382752565",
"jzxjjkjjlbjjjjbxjbkkzbzjjbkzbbg838euy222375228283723758273852582565756323375822857283822375257283652",
"bzkbbzbbbjbDFVjbbbjbbjzbbzjbjbg532252273228283258528285752273732732325755732322883257573228283257573",
"kbzbjbbjjNU^^^Kbjbbzlbbjbjbzzbg7333727285828236>>332258382237375523237568372722522375758582822375756",
"zzbjbzxbbU^^^^EFlzkbjr8rgbkbbll8572288227325733->238372232285228657565732258583773228322732573226325",
"bNRFjkbfMEE^^~^Kjblzr2228lbbbjbr23753752365265252273738575822582565756525632325752373752382222385237",
"bK(~xbbjMR~^^~(Kjbbg75557dbjbzbi22732565757357378852522728573732732325652575756382852282757385757325",
"jMKVlzzzcR^^~^^Fjbbg22825ibbjbkd73525673225627722382822325837375523236573756565228225828575837575236",
"blzlbbjbcNRW^^Kbbkkzu222rbjzbzzb82577255222525557357322837225228657575236573256525737325832222836575",
"bzbzkjbzclmFHAcccccclauubkzbbzzzi28238778uiu33275237822522738375523632575756565737582237223758223257",
"kbjkzbkbcccffccccccclcccjbbjjkbbf2322738ucbbu2578285573738522228657575632325732385737322732222857563",
"zbzbzbzdqeulcccccccccccckzjbbzjbjw528328lcccf8372822237375822223375756523237527327525238523838275652",
"bjbjbje2232eccccccccccccbzbzkbbzby222228fcjbf8772573285228573857256325657565657223828275827575232565",
"zzbjbj825275ubccjbzzbjbjbkzbbjbkcf225722rbbbe2323822223822375237523652382228223832575756575656323652",
"bkzbcu252832ubccbzbkzbzkzbbjzkzbcj82833870r8257275738575732282856575732282>2827275636325632525757573",
"zbbkbd322582ibccbkbzbbjbbjzblbccccw22275722238585758375752382822375752382%OO552556525237523737565756",
"bjbzjje23728jccczbjkkzbzzbzkbjbcbf05733257228273832222838275257325636575<OO+<83625657325732565736325",
"kzkzbjje660jbjbzzbjbzkbjblccccmcbf872372837537522237582257283822375257567:+>237536525236523737525237",
"jbbzzbzkjjjblbzbkbbzbbzirjccccjcbd572858222822827322228583257573256563252555563275736575656525657325",
"bkzbbbjbbxbzkbzbbzkbjbj758ccccccgr527585222358285238382722375758565652373657637557563757565256565236",
"zbbjkzbzkbjbzzbjjbzzbbu5<wcccccbj7223227385773258275752373228322732573257523525663252563257373256575",
"ccclccclzbkzbzbkclbzbzbdujcccccl05565756223822373257572858223822375237565756563252375237523652373257",
"ccjjccbjzkbzjbbzbcjbbzzblccccccu22732325857573227283832522857573256565736325257573256565657573257563",
"ae0eeuufjbbbjbjbjbcljbkjccccccu276523237375752385822223738275758565657525237375652365652375752365652",
"22222228wwyijlbbbcccbzzbcccbfe2852657565228382752285732275238322732523657325657365752573256365752565",
"282330882222060yujclxccjxcfe822585285885375257283822223832572758565756325237375257563652375257563652",
"2283788228325555828qwwee822232772732eju3228283257573857572832322732325756565256563257573256563257573",
"5728527337285655822622222638822223328de2582822375758375758223237523237565652565652375756565652375756",
"8322657282562252257382257325573857328833732573228322228322857285657565732573732573256325732573256325",
"2237523733875855275656575652365258275822382222382237523782258223758225825236523752378222822372235657",
"7322828538232273272573232565757373232285757385757322828557373228285737326575732565652838332858577323",
"5238282233232335323752323657575622323827575837575238282223737225258373753757523632522325722585825232",
"827525733uffu8377565657575236325857275238322228382752573285258373722522825636575755<<<85583727326575",
"32573822fcccca3256523756325757562238325722375822572838222372738522738375775232725-OOOO%<283325825236",
"7563752ecccccce22565657375632325857572837322228583257573285852273852222832657528+OOOOOOO<57237326575",
"5652322eccccccu2365757525652323737575822523838272237575875858223758222232828525%+OOOOOOO+22873753757",
"25657878cccccce275232365256575652283228582757523732283223227322828573857732258<OOOOOOOOOO>2852282563",
"36525236iclbcf8856323257375657562238223732575728523775637523822525828225837565>Oo+o+o+o+O%3375823752",
"757365758djju83325757563657323258575732272838325828532525657273737325737222866>O+o+o+o+++%8377332565",
"575637573280822237565652575232373757523858222237282265353265282873752373222323>Oo+o+o++ O%3373755656",
"6325256332255738657325652365756522838275228573222573556>-%->2822522828523857722++o+o+o+ O>8352577325",
"523756527582237557565657563252373752572838222238373375=O++OO%265822375827582238>oOOOOOO %57363755657",
"73252565285757322325732325756565228283257573857585283:OOOOOO.=723228285728575732-ooOO+ %265252567323",
"5236365725838372323752323756565258282237575837572753<OOOOOOOO >872252583258383726,=++%>5376525235232",
"6575752337222258756565756573257373257322832222832382>OOOOOOO.O-6583737223722225865568227255736576575",
"2573736532572856523775837582258222382237523737528266- OOOOOOOO-3563232573257575655265657565236525236",
"3652525772838322656532222857373285757322828522827286>OOOOOOOOO:2257575637563632526257323256575736575",
"75656523582222555652822225837375375752382822582828535+OOOOOO.O<8375656525652523732855232365757563757",
"56573256228573252573573837225228228382752573732522632>O+OOOOO-57657325652565732572826575752363252563",
"256582353822525237822375227383753752572837582237382228>+OOOO>232575656573652523628523756325757563752",
"37322777758325526557573238522228228283258573732275732832>>>25775232573237573657532656573756323252565",
"7375238222>-O==>523383727582222358282237275252385758523225232373323752325756375776575752565232375656",
"525628228=.OOO.O%28222582857385773257322238282758322626582572852756565756325256375232365256575657325",
"65237523-O OOOOOO=3322732375837537523758572828322237523775837582565236525657565256323257375657565657",
"3256568<OOOOOOOO.O,338525732222822828573832525727322828532222857256575737323256525757563657323257323",
"7525275: OOOOOOOOO:875828372222358282752223737585238282282222583365757565232365737565652575232375232",
"5637832-OOOOOOOOO.%228572258385773252382732285738275257357383722752363256575752365732565236575656575",
"2273275-.OOOOOOOOO=775838522722358272832523737525728382282252273325757565236325757565657563252375236",
"3853273>OO+OOOOO+O-532222738585773232572828522828325757357373852756323256575756323257323257565656575",
"75822282+OOOOOOOO+8282222375858222323758282258282237575823737582565232373757565232375232375656523757",
"28283825>OOOOOOOO<2557385732273285728573257373257322832228522857256575652563256575656575657325732563",
"258275837<%OOOO+,37228758375237225827583758225827583758225827583365256575652365256575652365256575237",
"37323222253,>:>8832827322228285837323222285737323222285737323222757373232565757373232565757373236565",
"7375822288288382227383722223758573758222258373758222258373758222575652323657575652323657575652325652",
"5228573852233283857322583857322752285738372252285738372252285738632565757523632565757523632565752573"
};
